<?xml version="1.0" encoding="UTF-8"?>
<svg version="1.1" xmlns="http://www.w3.org/2000/svg" width="145" height="134">
<path d="M0 0 C8.25 0 16.5 0 25 0 C25.33 28.38 25.66 56.76 26 86 C39.53 72.47 53.06 58.94 67 45 C70.37293565 46.68646783 71.93346994 47.69149717 74.453125 50.2578125 C75.071875 50.88300781 75.690625 51.50820313 76.328125 52.15234375 C76.96234375 52.80332031 77.5965625 53.45429687 78.25 54.125 C78.8996875 54.78371094 79.549375 55.44242188 80.21875 56.12109375 C81.81711727 57.74296643 83.41061897 59.3693281 85 61 C83.34089587 65.2967508 80.10222738 68.17848146 76.90136719 71.35742188 C76.2767308 71.9855629 75.65209442 72.61370392 75.00852966 73.26087952 C72.94298025 75.33522827 70.87020349 77.40217859 68.796875 79.46875 C67.35649837 80.91047413 65.91641873 82.35249502 64.47662354 83.7947998 C61.45689772 86.81747474 58.43358315 89.83650178 55.40771484 92.85302734 C51.5362437 96.71312465 47.67379264 100.58210285 43.81400681 104.45388031 C40.84073499 107.43439385 37.86269767 110.41010912 34.88321686 113.38441467 C33.45764732 114.80865305 32.03355368 116.23437032 30.6109848 117.66160583 C28.61753776 119.66015372 26.61775288 121.65214159 24.61621094 123.64257812 C24.03312668 124.22971085 23.45004242 124.81684357 22.84928894 125.42176819 C19.45512287 128.78127434 16.06215596 131.4829721 12 134 C2.69161985 125.54617139 -6.3043653 116.83149702 -15.17578125 107.921875 C-16.47977448 106.61601032 -17.78399339 105.31037095 -19.08842468 104.00494385 C-22.47545423 100.61414627 -25.85946687 97.22035417 -29.24279785 93.8258667 C-32.71403673 90.34428883 -36.18820644 86.86563808 -39.66210938 83.38671875 C-46.44423104 76.59396094 -53.22315998 69.79802681 -60 63 C-58.55695686 59.98590694 -57.13408132 57.89527984 -54.7421875 55.546875 C-53.80439453 54.61875 -53.80439453 54.61875 -52.84765625 53.671875 C-52.19667969 53.03765625 -51.54570313 52.4034375 -50.875 51.75 C-49.88693359 50.77546875 -49.88693359 50.77546875 -48.87890625 49.78125 C-47.25703357 48.18288273 -45.6306719 46.58938103 -44 45 C-40.68386118 46.44580966 -38.50814272 48.24829792 -35.96582031 50.80712891 C-35.17449707 51.59869385 -34.38317383 52.39025879 -33.56787109 53.20581055 C-32.33544678 54.45358276 -32.33544678 54.45358276 -31.078125 55.7265625 C-30.3154834 56.49121826 -29.5528418 57.25587402 -28.76708984 58.04370117 C-25.92257096 60.89867577 -23.08680691 63.76236237 -20.25 66.625 C-13.8975 73.01875 -7.545 79.4125 -1 86 C-0.67 57.62 -0.34 29.24 0 0 Z M2 2 C1.67 31.37 1.34 60.74 1 91 C-13.19 76.81 -27.38 62.62 -42 48 C-46.06026821 50.03013411 -48.65457376 52.42395554 -51.75 55.625 C-52.50990234 56.3984375 -52.50990234 56.3984375 -53.28515625 57.1875 C-54.52803902 58.45383339 -55.76465276 59.7263144 -57 61 C-55.72113231 63.80387058 -54.39618952 65.85248535 -52.21591187 68.02459717 C-51.64941422 68.59384415 -51.08291656 69.16309113 -50.49925232 69.74958801 C-49.87994339 70.36170639 -49.26063446 70.97382477 -48.62255859 71.60449219 C-47.96877731 72.25856552 -47.31499603 72.91263885 -46.6414032 73.58653259 C-44.48178862 75.74475514 -42.3151788 77.89580936 -40.1484375 80.046875 C-38.64870384 81.54287809 -37.14941147 83.03932369 -35.65054321 84.53619385 C-31.70610188 88.47300225 -27.75569106 92.40376734 -23.80401611 96.33331299 C-19.77197847 100.34488498 -15.74560286 104.36213094 -11.71875 108.37890625 C-3.81803787 116.25817445 4.0889909 124.13107125 12 132 C16.74190735 128.04145382 21.22496834 123.9163086 25.57788086 119.53564453 C26.19337799 118.92029343 26.80887512 118.30494232 27.44302368 117.67094421 C29.45267998 115.6605979 31.45878274 113.64674589 33.46484375 111.6328125 C34.86709544 110.22869339 36.26956981 108.82479664 37.67225647 107.42111206 C41.34541268 103.74415621 45.01555454 100.06420609 48.68505859 96.38360596 C52.43729767 92.62109763 56.19240493 88.86145421 59.94726562 85.1015625 C67.30097336 77.73716251 74.65149708 70.36959333 82 63 C80.16307611 58.99625569 77.50882084 56.28042066 74.375 53.25 C73.859375 52.74339844 73.34375 52.23679688 72.8125 51.71484375 C71.54616661 50.47196098 70.2736856 49.23534724 69 48 C65.59646978 49.47122616 63.38744251 51.36942513 60.78222656 53.99072266 C59.95029785 54.82289307 59.11836914 55.65506348 58.26123047 56.51245117 C57.39643066 57.38748291 56.53163086 58.26251465 55.640625 59.1640625 C54.83866699 59.96803467 54.03670898 60.77200684 53.21044922 61.6003418 C50.2181461 64.60310356 47.23459529 67.61457692 44.25 70.625 C37.5675 77.34875 30.885 84.0725 24 91 C23.67 61.63 23.34 32.26 23 2 C16.07 2 9.14 2 2 2 Z " fill="#626262" transform="translate(60,0)"/>
</svg>
