<svg width="72" height="71" viewBox="0 0 72 71" fill="none" xmlns="http://www.w3.org/2000/svg">
<path d="M64.2101 47.8422V21.3948L42.1706 8.99805M29.8285 8.99805L7.78906 21.3948V47.8422M13.0785 56.1079L35.9996 69.0001L50.1049 61.0659L58.9206 56.1061M35.9996 24.9211L41.2891 28.0067L46.5785 31.0922V43.4343L41.2891 46.5198L35.9996 49.6053L30.7101 46.5198L25.4206 43.4343V31.0922L30.7101 28.0067L35.9996 24.9211ZM35.9996 24.9211V12.579M46.5785 42.5527L58.9206 49.6053M25.4206 42.5527L13.0785 49.6053" stroke="black" stroke-width="4" stroke-linecap="round" stroke-linejoin="round"/>
<path d="M36.0004 12.5789C38.9217 12.5789 41.2899 10.2108 41.2899 7.28947C41.2899 4.36818 38.9217 2 36.0004 2C33.0791 2 30.7109 4.36818 30.7109 7.28947C30.7109 10.2108 33.0791 12.5789 36.0004 12.5789Z" stroke="black" stroke-width="4" stroke-linecap="round" stroke-linejoin="round"/>
<path d="M7.78947 58.4207C10.7108 58.4207 13.0789 56.0526 13.0789 53.1313C13.0789 50.21 10.7108 47.8418 7.78947 47.8418C4.86818 47.8418 2.5 50.21 2.5 53.1313C2.5 56.0526 4.86818 58.4207 7.78947 58.4207Z" stroke="black" stroke-width="4" stroke-linecap="round" stroke-linejoin="round"/>
<path d="M64.2113 58.4207C67.1326 58.4207 69.5008 56.0526 69.5008 53.1313C69.5008 50.21 67.1326 47.8418 64.2113 47.8418C61.2901 47.8418 58.9219 50.21 58.9219 53.1313C58.9219 56.0526 61.2901 58.4207 64.2113 58.4207Z" stroke="black" stroke-width="4" stroke-linecap="round" stroke-linejoin="round"/>
</svg>
