<svg width="67" height="67" viewBox="0 0 67 67" fill="none" xmlns="http://www.w3.org/2000/svg">
<path d="M48.1562 14.6562H56.5312V23.0312H48.1562V14.6562ZM48.1562 27.2188H56.5312V35.5938H48.1562V27.2188ZM35.5938 14.6562H43.9688V23.0312H35.5938V14.6562ZM35.5938 27.2188H43.9688V35.5938H35.5938V27.2188Z" fill="black"/>
<path d="M30.3594 54.4375C32.0939 54.4375 33.5 53.0314 33.5 51.2969C33.5 49.5624 32.0939 48.1562 30.3594 48.1562C28.6249 48.1562 27.2188 49.5624 27.2188 51.2969C27.2188 53.0314 28.6249 54.4375 30.3594 54.4375Z" fill="black"/>
<path d="M43.9688 62.8125H16.75C15.6397 62.8114 14.5753 62.3699 13.7902 61.5848C13.0051 60.7997 12.5636 59.7353 12.5625 58.625V8.375C12.5636 7.26475 13.0051 6.20028 13.7902 5.41521C14.5753 4.63015 15.6397 4.18861 16.75 4.1875H43.9688V8.375H16.75V58.625H43.9688V41.875H48.1562V58.625C48.1551 59.7353 47.7136 60.7997 46.9285 61.5848C46.1435 62.3699 45.079 62.8114 43.9688 62.8125Z" fill="black"/>
</svg>
